<svg xmlns="http://www.w3.org/2000/svg" xmlns:xlink="http://www.w3.org/1999/xlink" width="1920" zoomAndPan="magnify" viewBox="0 0 1440 809.999993" height="1080" preserveAspectRatio="xMidYMid meet" version="1.0"><path fill="#000000" d="M 364.277344 243.632812 L 121.632812 243.632812 C 99.332031 243.632812 81 261.941406 81 284.136719 L 81 525.667969 C 81 547.867188 99.332031 566.367188 121.632812 566.367188 L 242.367188 566.367188 L 242.367188 454.992188 L 202.5 454.992188 L 202.5 405.632812 L 242.367188 405.632812 L 242.367188 364.648438 C 242.367188 331.292969 270.113281 305.015625 303.617188 305.015625 L 344.882812 305.015625 L 344.882812 355.007812 L 323.835938 355.007812 C 312.675781 355.007812 303.75 353.535156 303.75 364.648438 L 303.75 405.632812 L 354.171875 405.632812 L 333.949219 454.992188 L 303.75 454.992188 L 303.75 566.367188 L 364.277344 566.367188 C 386.582031 566.367188 405 547.867188 405 525.667969 L 405 284.136719 C 405 261.941406 386.582031 243.632812 364.277344 243.632812 Z M 364.277344 243.632812 " fill-opacity="1" fill-rule="nonzero"/><path fill="#000000" d="M 803.363281 567 L 637.496094 567 C 593.664062 567 558.429688 531.765625 558.429688 487.933594 L 558.429688 322.066406 C 558.429688 278.234375 593.664062 243 637.496094 243 L 802.503906 243 C 846.335938 243 881.570312 278.234375 881.570312 322.066406 L 881.570312 487.074219 C 881.570312 530.90625 846.335938 566.140625 802.503906 566.140625 Z M 637.496094 268.78125 C 608.277344 268.78125 584.210938 292.847656 584.210938 322.066406 L 584.210938 487.074219 C 584.210938 516.292969 608.277344 540.359375 637.496094 540.359375 L 802.503906 540.359375 C 831.722656 540.359375 855.789062 516.292969 855.789062 487.074219 L 855.789062 322.066406 C 855.789062 292.847656 831.722656 268.78125 802.503906 268.78125 Z M 637.496094 268.78125 " fill-opacity="1" fill-rule="nonzero"/><path fill="#000000" d="M 720.859375 509.417969 C 664.136719 509.417969 618.589844 463.871094 618.589844 407.148438 C 618.589844 350.425781 664.136719 304.878906 720.859375 304.878906 C 777.582031 304.878906 823.128906 350.425781 823.128906 407.148438 C 823.128906 463.871094 777.582031 509.417969 720.859375 509.417969 Z M 720.859375 329.800781 C 677.886719 329.800781 643.511719 364.175781 643.511719 407.148438 C 643.511719 450.121094 677.886719 484.496094 720.859375 484.496094 C 763.832031 484.496094 798.207031 450.121094 798.207031 407.148438 C 798.207031 364.175781 763.832031 329.800781 720.859375 329.800781 Z M 720.859375 329.800781 " fill-opacity="1" fill-rule="nonzero"/><path fill="#000000" d="M 720.859375 453.558594 C 695.078125 453.558594 674.449219 432.929688 674.449219 407.148438 C 674.449219 381.367188 695.078125 360.738281 720.859375 360.738281 C 746.640625 360.738281 767.269531 381.367188 767.269531 407.148438 C 767.269531 432.929688 746.640625 453.558594 720.859375 453.558594 Z M 720.859375 386.523438 C 709.6875 386.523438 700.234375 395.976562 700.234375 407.148438 C 700.234375 418.320312 709.6875 427.773438 720.859375 427.773438 C 732.03125 427.773438 741.484375 418.320312 741.484375 407.148438 C 741.484375 395.976562 732.03125 386.523438 720.859375 386.523438 Z M 720.859375 386.523438 " fill-opacity="1" fill-rule="nonzero"/><path fill="#000000" d="M 831.722656 310.894531 C 831.722656 311.457031 831.695312 312.019531 831.640625 312.578125 C 831.585938 313.140625 831.503906 313.695312 831.394531 314.246094 C 831.285156 314.800781 831.148438 315.34375 830.984375 315.882812 C 830.820312 316.421875 830.632812 316.953125 830.414062 317.472656 C 830.199219 317.992188 829.960938 318.5 829.695312 318.996094 C 829.429688 319.492188 829.140625 319.976562 828.828125 320.441406 C 828.515625 320.910156 828.179688 321.363281 827.824219 321.796875 C 827.464844 322.234375 827.085938 322.648438 826.691406 323.046875 C 826.292969 323.445312 825.875 323.824219 825.441406 324.179688 C 825.003906 324.539062 824.554688 324.871094 824.085938 325.183594 C 823.617188 325.5 823.136719 325.789062 822.636719 326.050781 C 822.140625 326.316406 821.632812 326.558594 821.113281 326.773438 C 820.59375 326.988281 820.0625 327.179688 819.523438 327.34375 C 818.988281 327.503906 818.441406 327.640625 817.890625 327.753906 C 817.335938 327.863281 816.78125 327.945312 816.21875 328 C 815.660156 328.054688 815.097656 328.082031 814.535156 328.082031 C 813.972656 328.082031 813.410156 328.054688 812.851562 328 C 812.289062 327.945312 811.734375 327.863281 811.183594 327.753906 C 810.628906 327.640625 810.085938 327.503906 809.546875 327.34375 C 809.007812 327.179688 808.476562 326.988281 807.957031 326.773438 C 807.4375 326.558594 806.929688 326.316406 806.433594 326.050781 C 805.9375 325.789062 805.453125 325.5 804.988281 325.183594 C 804.519531 324.871094 804.066406 324.539062 803.632812 324.179688 C 803.195312 323.824219 802.78125 323.445312 802.382812 323.046875 C 801.984375 322.648438 801.605469 322.234375 801.25 321.796875 C 800.890625 321.363281 800.558594 320.910156 800.246094 320.441406 C 799.929688 319.976562 799.640625 319.492188 799.378906 318.996094 C 799.113281 318.5 798.871094 317.992188 798.65625 317.472656 C 798.441406 316.953125 798.25 316.421875 798.085938 315.882812 C 797.925781 315.34375 797.789062 314.800781 797.675781 314.246094 C 797.566406 313.695312 797.484375 313.140625 797.429688 312.578125 C 797.375 312.019531 797.347656 311.457031 797.347656 310.894531 C 797.347656 310.332031 797.375 309.769531 797.429688 309.210938 C 797.484375 308.648438 797.566406 308.09375 797.675781 307.539062 C 797.789062 306.988281 797.925781 306.441406 798.085938 305.90625 C 798.25 305.367188 798.441406 304.835938 798.65625 304.316406 C 798.871094 303.796875 799.113281 303.289062 799.378906 302.792969 C 799.640625 302.292969 799.929688 301.8125 800.246094 301.34375 C 800.558594 300.875 800.890625 300.425781 801.25 299.988281 C 801.605469 299.554688 801.984375 299.136719 802.382812 298.738281 C 802.78125 298.34375 803.195312 297.964844 803.632812 297.605469 C 804.066406 297.25 804.519531 296.914062 804.988281 296.601562 C 805.453125 296.289062 805.9375 296 806.433594 295.734375 C 806.929688 295.46875 807.4375 295.230469 807.957031 295.015625 C 808.476562 294.796875 809.007812 294.609375 809.546875 294.445312 C 810.085938 294.28125 810.628906 294.144531 811.183594 294.035156 C 811.734375 293.925781 812.289062 293.84375 812.851562 293.789062 C 813.410156 293.734375 813.972656 293.707031 814.535156 293.707031 C 815.097656 293.707031 815.660156 293.734375 816.21875 293.789062 C 816.78125 293.84375 817.335938 293.925781 817.890625 294.035156 C 818.441406 294.144531 818.988281 294.28125 819.523438 294.445312 C 820.0625 294.609375 820.59375 294.796875 821.113281 295.015625 C 821.632812 295.230469 822.140625 295.46875 822.636719 295.734375 C 823.132812 296 823.617188 296.289062 824.085938 296.601562 C 824.554688 296.914062 825.003906 297.25 825.441406 297.605469 C 825.875 297.964844 826.292969 298.34375 826.691406 298.738281 C 827.085938 299.136719 827.464844 299.554688 827.824219 299.988281 C 828.179688 300.425781 828.515625 300.875 828.828125 301.34375 C 829.140625 301.8125 829.429688 302.292969 829.695312 302.792969 C 829.960938 303.289062 830.199219 303.796875 830.414062 304.316406 C 830.632812 304.835938 830.820312 305.367188 830.984375 305.90625 C 831.148438 306.441406 831.285156 306.988281 831.394531 307.539062 C 831.503906 308.09375 831.585938 308.648438 831.640625 309.210938 C 831.695312 309.769531 831.722656 310.332031 831.722656 310.894531 Z M 831.722656 310.894531 " fill-opacity="1" fill-rule="nonzero"/><path fill="#000000" d="M 1214.207031 336.3125 L 1197 361.074219 L 1179.792969 336.3125 L 1119.269531 336.3125 L 1166.738281 405 L 1119.269531 473.6875 L 1179.792969 473.6875 L 1197 448.925781 L 1214.207031 473.6875 L 1274.730469 473.6875 L 1227.261719 405 L 1274.730469 336.3125 Z M 1214.207031 336.3125 " fill-opacity="1" fill-rule="nonzero"/><path fill="#000000" d="M 1197 243 C 1153.726562 243 1113.046875 259.851562 1082.449219 290.449219 C 1051.851562 321.046875 1035 361.726562 1035 405 C 1035 448.269531 1051.851562 488.953125 1082.449219 519.550781 C 1113.046875 550.148438 1153.726562 567 1197 567 C 1240.273438 567 1280.953125 550.148438 1311.550781 519.550781 C 1342.148438 488.953125 1359 448.273438 1359 405 C 1359 361.726562 1342.148438 321.046875 1311.550781 290.449219 C 1280.953125 259.851562 1240.273438 243 1197 243 Z M 1197 543 C 1120.90625 543 1059 481.09375 1059 405 C 1059 328.90625 1120.90625 267 1197 267 C 1273.09375 267 1335 328.90625 1335 405 C 1335 481.09375 1273.09375 543 1197 543 Z M 1197 543 " fill-opacity="1" fill-rule="nonzero"/></svg>